<svg viewBox="0 0 24 24" xmlns="http://www.w3.org/2000/svg" width="128" height="128"><g fill-rule="evenodd" stroke="currentColor" stroke-linecap="round"><path d="M6.5 9a.5.5 0 01.5-.5h10a.5.5 0 01.5.5v3a.5.5 0 01-.053.224L16.56 14l.888 1.776A.5.5 0 0117.5 16v6a1.5 1.5 0 01-1.5 1.5H8A1.5 1.5 0 016.5 22v-6a.5.5 0 01.053-.224L7.44 14l-.888-1.776A.5.5 0 016.5 12V9zm1 .5v2.382l.947 1.894a.5.5 0 010 .448L7.5 16.118V22a.5.5 0 00.5.5h8a.5.5 0 00.5-.5v-5.882l-.947-1.894a.5.5 0 010-.448l.947-1.894V9.5h-9zm2-8.5a.5.5 0 01.5-.5h4a.5.5 0 01.5.5v3a.5.5 0 01-.5.5h-4a.5.5 0 01-.5-.5V1zm1 .5v2h3v-2h-3z"/><path d="M6.5 8A4.5 4.5 0 0111 3.5h2A4.5 4.5 0 0117.5 8v1a.5.5 0 01-.5.5H7a.5.5 0 01-.5-.5V8zM11 4.5A3.5 3.5 0 007.5 8v.5h9V8A3.5 3.5 0 0013 4.5h-2zm-.5 9.5a.5.5 0 01.5-.5h2a.5.5 0 010 1h-2a.5.5 0 01-.5-.5zm-1 3a.5.5 0 01.5-.5h4a.5.5 0 010 1h-4a.5.5 0 01-.5-.5zm0 3a.5.5 0 01.5-.5h4a.5.5 0 010 1h-4a.5.5 0 01-.5-.5z"/></g></svg>